<?xml version="1.0" standalone="no"?><!DOCTYPE svg PUBLIC "-//W3C//DTD SVG 1.1//EN" "http://www.w3.org/Graphics/SVG/1.1/DTD/svg11.dtd"><svg t="1487320580303" class="icon" style="" viewBox="0 0 1024 1024" version="1.1" xmlns="http://www.w3.org/2000/svg" p-id="4169" xmlns:xlink="http://www.w3.org/1999/xlink" width="64" height="64"><defs><style type="text/css"></style></defs><path d="M445.37856 814.98112c8.99072 6.64576 32.59392 42.0864 51.6096 77.70112a19.31264 19.31264 0 0 0 34.88768-1.72032c14.44864-34.93888 33.81248-70.02112 42.31168-76.87168 166.52288-31.744 287.17056-177.60256 287.17056-347.56608C861.35808 271.39072 702.60736 112.64 507.47392 112.64 312.35072 112.64 153.6 271.39072 153.6 466.51392c0 83.97824 29.94176 165.39648 84.3264 229.2736 53.30944 62.62784 126.91456 104.89856 207.4624 119.1936z m62.09536-663.71584c173.83424 0 315.25888 141.42464 315.25888 315.24864 0 152.00256-108.288 282.34752-257.49504 309.95456-11.264 2.08896-24.92416 10.27072-48.4352 55.53152-1.62816 3.14368-3.20512 6.27712-4.7104 9.32864a643.2768 643.2768 0 0 0-6.52288-10.5472c-26.30656-41.60512-39.71072-51.49696-51.712-53.53472-151.59296-25.99936-261.632-156.672-261.632-310.72256 0-173.83424 141.42464-315.25888 315.24864-315.25888zM402.2784 341.0944l-36.6592-36.6592a14.52032 14.52032 0 1 0-20.5312 20.5312l36.6592 36.6592-36.6592 36.6592a14.52032 14.52032 0 0 0 20.5312 20.5312l36.6592-36.6592 36.6592 36.6592a14.52032 14.52032 0 1 0 20.52096-20.5312l-36.6592-36.6592 36.6592-36.6592a14.52032 14.52032 0 0 0-20.52096-20.5312l-36.6592 36.6592z m218.35776 0l-36.6592-36.6592a14.52032 14.52032 0 1 0-20.5312 20.5312l36.6592 36.6592-36.6592 36.6592a14.52032 14.52032 0 1 0 20.5312 20.5312l36.6592-36.6592 36.6592 36.6592a14.52032 14.52032 0 0 0 20.52096-20.5312l-36.6592-36.6592 36.6592-36.6592a14.52032 14.52032 0 0 0-20.52096-20.5312l-36.6592 36.6592zM501.76 665.6c45.24032 0 81.92-41.2672 81.92-92.16s-36.67968-92.16-81.92-92.16-81.92 41.2672-81.92 92.16 36.67968 92.16 81.92 92.16z" p-id="4170" fill="#8a8a8a"></path></svg>